<svg viewBox="0 0 1280 640" xmlns="http://www.w3.org/2000/svg" xmlns:xlink="http://www.w3.org/1999/xlink">
  <defs>
    <filter id="glow" x="-39.1%" y="-39.1%" width="178.1%" height="178.1%" filterUnits="objectBoundingBox">
      <feGaussianBlur stdDeviation="50" in="SourceGraphic"/>
    </filter>
    <linearGradient id="sheen" x1="50%" y1="100%" x2="50%" y2="0%">
      <stop stop-color="#C44014" stop-opacity="0" offset="0%"/>
      <stop stop-color="#FF855C" stop-opacity="0.604036345" offset="100%"/>
    </linearGradient>
    <ellipse id="mark" cx="192" cy="123" rx="192" ry="122"/>
  </defs>
  <rect fill="#1B1B1F" width="1280" height="640"/>
  <g transform="translate(172 128)">
    <rect fill="#FF6E3D" fill-opacity="0.501927516" opacity="0.399999709" filter="url(#glow)" width="384" height="384" rx="192"/>
    <path fill="#FFFFFF" fill-opacity="0.801988295" fill-rule="nonzero" d="M495.094727,233.831055 C521.31543,233.831055 537.941406,220.867188 537.941406,200.359375 C537.941406,184.246094 528.712891,175.164062 507.545898,170.623047 L494.728516,167.913086 C482.570312,165.129883 477.443359,161.467773 477.443359,154.949219 C477.443359,147.112305 484.767578,141.912109 495.680664,141.912109 C506.740234,141.912109 514.577148,147.332031 515.30957,156.267578 L536.037109,156.267578 C535.670898,137.151367 520.216797,124.480469 495.607422,124.480469 C472.023438,124.480469 455.177734,137.371094 455.177734,156.853516 C455.177734,172.307617 464.772461,182.195312 484.254883,186.370117 L498.024414,189.373047 C510.768555,192.229492 515.822266,196.038086 515.822266,202.922852 C515.822266,210.686523 507.765625,216.326172 495.973633,216.326172 C484.254883,216.326172 475.172852,210.613281 474.147461,201.897461 L452.833984,201.897461 C453.493164,221.746094 469.679688,233.831055 495.094727,233.831055 Z M585.695312,233.391602 C609.645508,233.391602 624.586914,218.230469 624.586914,192.668945 C624.586914,167.473633 609.425781,152.092773 585.695312,152.092773 C561.964844,152.092773 546.803711,167.546875 546.803711,192.668945 C546.803711,218.157227 561.745117,233.391602 585.695312,233.391602 Z M585.695312,217.058594 C574.928711,217.058594 568.483398,208.196289 568.483398,192.742188 C568.483398,177.507812 575.001953,168.425781 585.695312,168.425781 C596.388672,168.425781 602.833984,177.43457 602.833984,192.742188 C602.833984,208.196289 596.388672,217.058594 585.695312,217.058594 Z M656.959961,232 L656.959961,188.420898 C656.959961,177.361328 663.112305,170.916016 673.65918,170.916016 C676.735352,170.916016 679.665039,171.428711 681.422852,172.161133 L681.422852,153.337891 C679.884766,152.825195 677.833984,152.532227 675.34375,152.532227 C666.115234,152.532227 659.376953,157.878906 656.666992,167.620117 L656.227539,167.620117 L656.227539,153.484375 L635.573242,153.484375 L635.573242,232 L656.959961,232 Z M736.793945,232.952148 C756.569336,232.952148 768.654297,217.717773 768.654297,192.742188 C768.654297,167.693359 756.496094,152.532227 736.720703,152.532227 C725.514648,152.532227 716.798828,157.805664 712.477539,166.960938 L712.038086,166.960938 L712.038086,126.311523 L690.651367,126.311523 L690.651367,232 L711.745117,232 L711.745117,218.523438 L712.18457,218.523438 C716.505859,227.678711 725.294922,232.952148 736.793945,232.952148 Z M729.396484,215.740234 C718.922852,215.740234 711.964844,206.658203 711.964844,192.742188 C711.964844,178.972656 718.922852,169.744141 729.396484,169.744141 C739.870117,169.744141 746.754883,178.75293 746.754883,192.742188 C746.754883,206.731445 739.943359,215.740234 729.396484,215.740234 Z M807.619141,233.171875 C819.484375,233.171875 827.174805,227.605469 831.129883,217.717773 L831.569336,217.717773 L831.569336,232 L852.223633,232 L852.223633,153.484375 L830.836914,153.484375 L830.836914,198.162109 C830.836914,208.5625 824.904297,215.374023 815.382812,215.374023 C805.93457,215.374023 800.734375,209.807617 800.734375,199.333984 L800.734375,153.484375 L779.347656,153.484375 L779.347656,203.801758 C779.347656,222.112305 790.626953,233.171875 807.619141,233.171875 Z M897.853516,233.391602 C918.581055,233.391602 932.790039,223.28418 932.790039,207.90332 C932.790039,196.257812 926.417969,190.105469 910.670898,186.589844 L895.65625,183.367188 C888.771484,181.755859 885.402344,179.192383 885.402344,175.383789 C885.402344,170.40332 890.30957,167.107422 897.633789,167.107422 C905.543945,167.107422 910.670898,170.989258 911.037109,177.141602 L930.739258,177.141602 C930.519531,161.980469 917.555664,152.092773 897.926758,152.092773 C877.785156,152.092773 864.821289,161.833984 864.821289,176.702148 C864.821289,188.201172 872.438477,195.891602 887.306641,199.260742 L901.808594,202.483398 C908.839844,204.167969 911.476562,206.291992 911.476562,210.173828 C911.476562,215.227539 906.496094,218.376953 898.439453,218.376953 C889.943359,218.376953 884.669922,214.641602 883.717773,208.123047 L862.84375,208.123047 C863.942383,223.357422 876.90625,233.391602 897.853516,233.391602 Z"/>
    <ellipse fill="#FFFFFF" fill-opacity="0.161972793" cx="192" cy="274.291667" rx="172" ry="109.291667"/>
    <path fill="#FFFFFF" fill-opacity="0.0408978229" fill-rule="nonzero" d="M192,165 C286.992977,165 364,213.931546 364,274.291667 C364,334.651787 286.992977,383.583333 192,383.583333 C97.007023,383.583333 20,334.651787 20,274.291667 C20,213.931546 97.007023,165 192,165 Z M192,173 C100.87429,173 28,219.305539 28,274.291667 C28,329.277795 100.87429,375.583333 192,375.583333 C283.12571,375.583333 356,329.277795 356,274.291667 C356,219.305539 283.12571,173 192,173 Z"/>
    <use fill="#FF6E3D" fill-opacity="0.797575" xlink:href="#mark"/>
    <use fill="url(#sheen)" xlink:href="#mark"/>
    <path fill="#FF6E3D" fill-opacity="0.400062828" fill-rule="nonzero" d="M192,1 C298.038672,1 384,55.6212605 384,123 C384,190.378739 298.038672,245 192,245 C85.961328,245 0,190.378739 0,123 C0,55.6212605 85.961328,1 192,1 Z M192,9 C89.8285951,9 8,60.9952532 8,123 C8,185.004747 89.8285951,237 192,237 C294.171405,237 376,185.004747 376,123 C376,60.9952532 294.171405,9 192,9 Z"/>
  </g>
</svg>
