<svg width="96" height="96" viewBox="0 0 96 96" xmlns="http://www.w3.org/2000/svg">
  <defs>
    <linearGradient x1="50%" y1="100%" x2="50%" y2="0%" id="g">
      <stop stop-color="#C44014" stop-opacity="0" offset="0%"/>
      <stop stop-color="#FF855C" stop-opacity="0.604" offset="100%"/>
    </linearGradient>
    <ellipse id="e" cx="48" cy="30.5" rx="48" ry="30.5"/>
  </defs>
  <g transform="translate(5 41)" fill="#FFFFFF">
    <ellipse fill-opacity="0.162" cx="43" cy="27.323" rx="43" ry="27.323"/>
    <path d="M43,0 C66.7482442,0 86,12.2328865 86,27.3229167 C86,42.4129469 66.7482442,54.6458333 43,54.6458333 C19.2517558,54.6458333 0,42.4129469 0,27.3229167 C0,12.2328865 19.2517558,0 43,0 Z M43,2 C20.2185725,2 2,13.5763846 2,27.3229167 C2,41.0694487 20.2185725,52.6458333 43,52.6458333 C65.7814275,52.6458333 84,41.0694487 84,27.3229167 C84,13.5763846 65.7814275,2 43,2 Z" fill-opacity="0.041" fill-rule="nonzero"/>
  </g>
  <use fill="#FF6E3D" fill-opacity="0.798" href="#e"/>
  <use fill="url(#g)" href="#e"/>
  <path d="M48,0 C74.509668,0 96,13.6553151 96,30.5 C96,47.3446849 74.509668,61 48,61 C21.490332,61 0,47.3446849 0,30.5 C0,13.6553151 21.490332,0 48,0 Z M48,2 C22.4571488,2 2,14.9988133 2,30.5 C2,46.0011867 22.4571488,59 48,59 C73.5428512,59 94,46.0011867 94,30.5 C94,14.9988133 73.5428512,2 48,2 Z" fill="#FF6E3D" fill-opacity="0.4" fill-rule="nonzero"/>
</svg>
